<svg width="48" height="48" viewBox="0 0 48 48" fill="none" xmlns="http://www.w3.org/2000/svg">
<path d="M24.0006 27.4602C22.7319 27.4602 21.6701 27.0058 20.8154 26.0969C19.9606 25.1881 19.5332 24.0844 19.5332 22.7861V12.4253C19.5332 11.2015 19.9675 10.158 20.836 9.29483C21.7045 8.43161 22.7591 8 23.9999 8C25.2406 8 26.297 8.43161 27.1688 9.29483C28.0407 10.158 28.4767 11.2015 28.4767 12.4253V22.7861C28.4767 24.0844 28.0478 25.1881 27.1901 26.0969C26.3325 27.0058 25.2693 27.4602 24.0006 27.4602ZM22.6466 40.1464V34.4759C19.6231 34.1586 17.0928 32.888 15.0557 30.6644C13.0186 28.4407 12 25.8146 12 22.7861H14.7167C14.7167 25.342 15.6212 27.4936 17.4302 29.241C19.2392 30.9884 21.4271 31.862 23.9937 31.862C26.5604 31.862 28.7503 30.9879 30.5635 29.2395C32.3767 27.4912 33.2833 25.3401 33.2833 22.7861H36C36 25.8162 34.9814 28.4427 32.9443 30.6656C30.9072 32.8884 28.3769 34.1582 25.3534 34.4749V40.1464H22.6466ZM24.001 24.6345C24.4822 24.6345 24.8758 24.4535 25.1819 24.0917C25.488 23.7298 25.641 23.2946 25.641 22.7861V12.4266C25.641 11.9781 25.4823 11.5992 25.165 11.2898C24.8477 10.9804 24.4593 10.8257 24 10.8257C23.5407 10.8257 23.1523 10.9804 22.835 11.2898C22.5177 11.5992 22.359 11.9781 22.359 12.4266V22.7861C22.359 23.2946 22.5124 23.7298 22.8192 24.0917C23.1259 24.4535 23.5199 24.6345 24.001 24.6345Z" fill="#ECEEEF"/>
</svg>
