<svg width="48" height="48" viewBox="0 0 48 48" fill="none" xmlns="http://www.w3.org/2000/svg">
<path d="M21.975 44.299C20.9017 44.299 19.8742 44.0782 18.8924 43.6366C17.9107 43.195 17.0915 42.5528 16.4348 41.7099L5.47717 27.7544L6.83807 26.4012C7.36767 25.883 8.00424 25.5701 8.74777 25.4625C9.49131 25.3549 10.195 25.4798 10.8587 25.837L15.5576 28.3196V10.4522C15.5576 9.98838 15.7185 9.59651 16.0403 9.27661C16.362 8.95674 16.7564 8.79681 17.2233 8.79681C17.6902 8.79681 18.0811 8.95674 18.3961 9.27661C18.711 9.59651 18.8685 9.98838 18.8685 10.4522V33.8338L11.3218 29.8164L19.1457 39.7044C19.4952 40.1251 19.9133 40.4423 20.3999 40.6558C20.8866 40.8694 21.4036 40.9762 21.9511 40.9762H32.6435C33.859 40.9762 34.8869 40.5588 35.7274 39.7242C36.5678 38.8895 36.9881 37.8613 36.9881 36.6396V28.4425C36.9881 27.5128 36.6699 26.7325 36.0335 26.1017C35.3971 25.4709 34.6157 25.1555 33.6891 25.1555H22.8685V21.8327H33.6714C35.5098 21.8327 37.0759 22.4768 38.3699 23.765C39.6639 25.0532 40.3109 26.6124 40.3109 28.4425V36.6436C40.3109 38.7834 39.568 40.5943 38.0821 42.0762C36.5962 43.558 34.7851 44.299 32.6489 44.299H21.975ZM9.58807 14.8696C9.20357 14.2215 8.90781 13.5218 8.70077 12.7706C8.49374 12.0193 8.39022 11.2459 8.39022 10.4505C8.39022 8.00527 9.25029 5.92578 10.9704 4.21201C12.6905 2.49824 14.7708 1.64136 17.2113 1.64136C19.6518 1.64136 21.7327 2.50194 23.454 4.22311C25.1752 5.94427 26.0359 8.02586 26.0359 10.4679C26.0359 11.2612 25.9324 12.0318 25.7253 12.7798C25.5183 13.5277 25.2225 14.2243 24.8381 14.8696L21.9631 13.2142C22.1964 12.8142 22.3797 12.3809 22.5131 11.9142C22.6464 11.4475 22.7131 10.9562 22.7131 10.4403C22.7131 8.92291 22.1778 7.63088 21.1072 6.56421C20.0366 5.49754 18.7366 4.96421 17.2072 4.96421C15.6778 4.96421 14.3797 5.49893 13.3131 6.56836C12.2464 7.63779 11.7131 8.93641 11.7131 10.4642C11.7131 10.9642 11.7797 11.4475 11.9131 11.9142C12.0464 12.3809 12.2297 12.8142 12.4631 13.2142L9.58807 14.8696Z" fill="black"/>
</svg>
